<?xml version="1.0" encoding="utf-8"?>
<!-- Generator: Adobe Illustrator 24.0.1, SVG Export Plug-In . SVG Version: 6.00 Build 0)  -->
<svg version="1.1" id="Layer_1" xmlns="http://www.w3.org/2000/svg" xmlns:xlink="http://www.w3.org/1999/xlink" x="0px" y="0px"
	 viewBox="0 0 800 800" style="enable-background:new 0 0 800 800;" xml:space="preserve">
<style type="text/css">
	.st0{fill:#FFB89A;}
	.st1{fill:#E6E6E6;}
	.st2{fill:#33CC99;}
</style>
<path class="st0" d="M692,299.8h-70.6c9.6,12.3,15.4,27.8,15.4,44.6V496c0,40.1-32.8,72.8-72.8,72.8H386c9.5,24.2,33,41.5,60.5,41.5
	H692c35.6,0,64.8-29.1,64.8-64.8V364.7C756.8,329,727.7,299.8,692,299.8z"/>
<path class="st1" d="M609.9,455V223.7c0-58-47.4-105.4-105.4-105.4H154.8c-58,0-105.4,47.4-105.4,105.4V455
	c0,55.1,42.8,100.5,96.7,105c0,0-15.6,121.4,3.8,121.4s147.2-121,147.2-121h207.3C562.5,560.4,609.9,513,609.9,455L609.9,455z
	 M278.6,513.5L265,526.3c-0.2,0.2-27,25.5-57.2,52.4c-6.6,5.9-12.7,11.2-18.2,16c1.5-16.3,3-28.6,3-28.8l6.3-48.7l-48.9-4.1
	c-30.1-2.5-53.7-28.1-53.7-58.3V223.7c0-15.5,6.1-30.2,17.3-41.3c11.1-11.1,25.8-17.3,41.3-17.3h349.7c15.5,0,30.2,6.1,41.2,17.3
	c11.1,11.1,17.3,25.8,17.3,41.3V455c0,15.5-6.1,30.2-17.3,41.2c-11.1,11.1-25.8,17.3-41.2,17.3L278.6,513.5L278.6,513.5z"/>
<path class="st1" d="M648.7,264c-12.7-2.6-25.1,5.5-27.7,18.2s5.5,25.1,18.2,27.7c30.5,6.3,52.6,33.4,52.6,64.5v138.3
	c0,32.5-24.3,60.5-56.5,65.2l-25.5,3.7l6.1,25.1c1.6,6.3,3,13.1,4.5,19.8c-13.8-12.8-29.1-27.5-43.1-41.2l-6.8-6.7h-131
	c-17.1,0-28.6-1.1-36.9-6.7c-10.7-7.3-25.3-4.5-32.6,6.2c-7.3,10.7-4.5,25.3,6.2,32.6c20.1,13.7,43.2,14.8,63.3,14.8h111.9
	c7.8,7.6,21.3,20.5,35.2,33.4c12.7,11.8,23.1,21.2,31.1,28c15.6,13.3,22.9,18,32.5,18c7.6,0,14.6-3.4,19.4-9.5
	c7.9-10.1,8-22.7,0.4-61.5c-1.1-5.6-2.3-11.1-3.4-16.1c42.5-16.5,72.2-58,72.2-105.2V374.3C738.8,321.2,700.9,274.8,648.7,264
	L648.7,264z"/>
<path class="st2" d="M339.5,470.9c-28,0-55.5-13.4-77.2-37.6c-19.2-21.5-30.7-48.1-30.7-71.4v-23.2l23.2-0.2
	c0.3,0,28.3-0.3,74.5-0.3c13,0,23.4,10.5,23.4,23.4c0,13-10.5,23.4-23.4,23.4c-17.4,0-32.2,0.1-43.9,0.1c3,5.5,6.9,11.3,11.8,16.9
	c12.5,14,27.9,22,42.3,22s29.8-8,42.3-22c5.1-5.7,9.1-11.6,12-17.3c-10.7-2.2-18.8-11.7-18.8-23c0.1-12.9,10.5-23.4,23.4-23.4h0.1
	c21.2,0.1,25.4,0.2,26.3,0.2l22.6,0.9V362c0,23.3-11.5,49.9-30.7,71.4C394.9,457.6,367.6,470.9,339.5,470.9L339.5,470.9z"/>
</svg>
